<svg width="817.5950439453125px" height="214.88001098632813px" xmlns="http://www.w3.org/2000/svg" viewBox="-158.79752197265623 -32.440005493164065 817.5950439453125 214.88001098632813" style="background:#596886" preserveAspectRatio="xMidYMid"><defs><filter id="editing-hover" x="-100%" y="-100%" width="300%" height="300%"><feFlood flood-color="#052b4a" result="flood"></feFlood><feComposite operator="in" in2="SourceAlpha" in="flood" result="shadow"></feComposite><feOffset dx="-4" dy="-4" in="SourceGraphic" result="offset-1"></feOffset><feOffset dx="4" dy="4" in="shadow" result="offset-2"></feOffset><feMerge><feMergeNode in="offset-2"></feMergeNode><feMergeNode in="offset-1"></feMergeNode></feMerge></filter></defs><g filter="url(#editing-hover)"><g transform="translate(-43.78498101234436, 118.05000853538513)"><path d="M66.30-25.46L66.30-25.46L66.30-25.46Q69.50-23.12 69.50-18.14L69.50-18.14L69.50-18.14Q69.50-13.16 67.34-9.66L67.34-9.66L67.34-9.66Q65.19-6.15 61.01-3.44L61.01-3.44L61.01-3.44Q52.03 2.34 36.35 2.34L36.35 2.34L36.35 2.34Q20.66 2.34 12.12-5.84L12.12-5.84L12.12-5.84Q3.57-14.02 3.57-28.54L3.57-28.54L3.57-28.54Q3.57-49.08 14.27-64.70L14.27-64.70L14.27-64.70Q22.39-76.26 36.90-81.18L36.90-81.18L36.90-81.18Q44.40-83.64 51.78-83.64L51.78-83.64L51.78-83.64Q59.16-83.64 63.71-82.66L63.71-82.66L63.71-82.66Q68.27-81.67 71.71-79.70L71.71-79.70L71.71-79.70Q79.21-75.40 79.21-68.51L79.21-68.51L79.21-68.51Q79.21-62.24 73.31-57.56L73.31-57.56L73.31-57.56Q67.90-53.38 63.47-53.38L63.47-53.38L63.47-53.38Q59.04-53.38 57.20-54.00L57.20-54.00L57.20-54.00Q57.69-58.42 57.69-61.32L57.69-61.32L57.69-61.32Q57.69-64.21 57.56-66.30L57.56-66.30L57.56-66.30Q57.44-68.39 56.83-70.36L56.83-70.36L56.83-70.36Q55.60-74.91 51.84-74.91L51.84-74.91L51.84-74.91Q48.09-74.91 44.34-71.40L44.34-71.40L44.34-71.40Q40.59-67.90 37.39-61.99L37.39-61.99L37.39-61.99Q30.13-48.59 30.13-32.72L30.13-32.72L30.13-32.72Q30.13-25.09 34.44-20.73L34.44-20.73L34.44-20.73Q38.74-16.36 47.97-16.36L47.97-16.36L47.97-16.36Q54.86-16.36 61.38-20.91L61.38-20.91L61.38-20.91Q64.21-22.88 66.30-25.46ZM106.52 2.46L106.52 2.46L106.52 2.46Q79.46 2.46 79.46-23.00L79.46-23.00L79.46-23.00Q79.46-41.08 89.42-52.77L89.42-52.77L89.42-52.77Q100.00-65.19 118.33-65.19L118.33-65.19L118.33-65.19Q131.61-65.19 138.38-59.04L138.38-59.04L138.38-59.04Q145.14-52.89 145.14-39.98L145.14-39.98L145.14-39.98Q145.14-20.29 134.56-8.86L134.56-8.86L134.56-8.86Q124.23 2.46 106.52 2.46ZM109.72-51.05L109.72-51.05L109.72-51.05Q108.24-47.72 107.07-42.74L107.07-42.74L107.07-42.74Q105.90-37.76 104.43-29.89L104.43-29.89L104.43-29.89Q102.95-22.02 102.95-12.30L102.95-12.30L102.95-12.30Q102.95-9.10 104.00-7.01L104.00-7.01L104.00-7.01Q105.04-4.92 107.87-4.92L107.87-4.92L107.87-4.92Q110.70-4.92 112.48-6.27L112.48-6.27L112.48-6.27Q114.27-7.63 115.62-10.82L115.62-10.82L115.62-10.82Q118.08-16.48 120.05-27.00L120.05-27.00L120.05-27.00Q122.02-37.52 122.20-42.07L122.20-42.07L122.20-42.07Q122.38-46.62 122.38-50.00L122.38-50.00L122.38-50.00Q122.38-53.38 121.40-55.60L121.40-55.60L121.40-55.60Q120.42-57.81 117.65-57.81L117.65-57.81L117.65-57.81Q114.88-57.81 113.04-56.09L113.04-56.09L113.04-56.09Q111.19-54.37 109.72-51.05ZM240.96 2.46L240.96 2.46L240.96 2.46Q226.07 2.46 226.07-9.10L226.07-9.10L226.07-9.10Q226.07-14.14 228.23-23.92L228.23-23.92L228.23-23.92Q230.38-33.70 231.12-37.64L231.12-37.64L231.12-37.64Q232.84-46.62 232.84-49.45L232.84-49.45L232.84-49.45Q232.84-55.72 228.16-55.72L228.16-55.72L228.16-55.72Q225.09-55.72 222.14-51.48L222.14-51.48L222.14-51.48Q219.19-47.23 217.83-38.74L217.83-38.74L210.21 0L186.22 2.46L192.86-31.00L192.86-31.00Q193.97-36.53 194.95-42.80L194.95-42.80L194.95-42.80Q195.94-49.08 195.94-50.06L195.94-50.06L195.94-50.06Q195.94-55.72 191.76-55.72L191.76-55.72L191.76-55.72Q188.93-55.72 185.85-51.54L185.85-51.54L185.85-51.54Q182.78-47.35 181.06-38.74L181.06-38.74L173.55 0L149.32 2.46L162.24-62.73L182.29-65.19L180.19-52.77L180.19-52.77Q183.39-59.41 189.30-62.30L189.30-62.30L189.30-62.30Q195.20-65.19 204.43-65.19L204.43-65.19L204.43-65.19Q209.71-65.19 213.16-62.61L213.16-62.61L213.16-62.61Q216.60-60.02 217.71-55.84L217.71-55.84L217.71-55.84Q219.80-60.15 225.15-62.67L225.15-62.67L225.15-62.67Q230.50-65.19 237.08-65.19L237.08-65.19L237.08-65.19Q243.66-65.19 246.92-63.78L246.92-63.78L246.92-63.78Q250.18-62.36 252.15-60.02L252.15-60.02L252.15-60.02Q255.47-55.72 255.47-47.85L255.47-47.85L255.47-47.85Q255.47-40.10 252.15-23.98L252.15-23.98L252.15-23.98Q250.43-16.11 250.43-13.22L250.43-13.22L250.43-13.22Q250.43-10.33 252.09-8.61L252.09-8.61L252.09-8.61Q253.75-6.89 256.21-6.64L256.21-6.64L256.21-6.64Q254.98-2.46 250.74 0L250.74 0L250.74 0Q246.49 2.46 240.96 2.46ZM354.24 2.46L354.24 2.46L354.24 2.46Q339.36 2.46 339.36-9.10L339.36-9.10L339.36-9.10Q339.36-14.14 341.51-23.92L341.51-23.92L341.51-23.92Q343.66-33.70 344.40-37.64L344.40-37.64L344.40-37.64Q346.12-46.62 346.12-49.45L346.12-49.45L346.12-49.45Q346.12-55.72 341.45-55.72L341.45-55.72L341.45-55.72Q338.37-55.72 335.42-51.48L335.42-51.48L335.42-51.48Q332.47-47.23 331.12-38.74L331.12-38.74L323.49 0L299.50 2.46L306.15-31.00L306.15-31.00Q307.25-36.53 308.24-42.80L308.24-42.80L308.24-42.80Q309.22-49.08 309.22-50.06L309.22-50.06L309.22-50.06Q309.22-55.72 305.04-55.72L305.04-55.72L305.04-55.72Q302.21-55.72 299.14-51.54L299.14-51.54L299.14-51.54Q296.06-47.35 294.34-38.74L294.34-38.74L286.84 0L262.61 2.46L275.52-62.73L295.57-65.19L293.48-52.77L293.48-52.77Q296.68-59.41 302.58-62.30L302.58-62.30L302.58-62.30Q308.48-65.19 317.71-65.19L317.71-65.19L317.71-65.19Q323.00-65.19 326.44-62.61L326.44-62.61L326.44-62.61Q329.89-60.02 330.99-55.84L330.99-55.84L330.99-55.84Q333.08-60.15 338.43-62.67L338.43-62.67L338.43-62.67Q343.78-65.19 350.37-65.19L350.37-65.19L350.37-65.19Q356.95-65.19 360.21-63.78L360.21-63.78L360.21-63.78Q363.47-62.36 365.43-60.02L365.43-60.02L365.43-60.02Q368.75-55.72 368.75-47.85L368.75-47.85L368.75-47.85Q368.75-40.10 365.43-23.98L365.43-23.98L365.43-23.98Q363.71-16.11 363.71-13.22L363.71-13.22L363.71-13.22Q363.71-10.33 365.37-8.61L365.37-8.61L365.37-8.61Q367.03-6.89 369.49-6.64L369.49-6.64L369.49-6.64Q368.26-2.46 364.02 0L364.02 0L364.02 0Q359.77 2.46 354.24 2.46ZM405.78 2.46L405.78 2.46L405.78 2.46Q378.72 2.46 378.72-23.00L378.72-23.00L378.72-23.00Q378.72-41.08 388.68-52.77L388.68-52.77L388.68-52.77Q399.26-65.19 417.59-65.19L417.59-65.19L417.59-65.19Q430.87-65.19 437.63-59.04L437.63-59.04L437.63-59.04Q444.40-52.89 444.40-39.98L444.40-39.98L444.40-39.98Q444.40-20.29 433.82-8.86L433.82-8.86L433.82-8.86Q423.49 2.46 405.78 2.46ZM408.98-51.05L408.98-51.05L408.98-51.05Q407.50-47.72 406.33-42.74L406.33-42.74L406.33-42.74Q405.16-37.76 403.69-29.89L403.69-29.89L403.69-29.89Q402.21-22.02 402.21-12.30L402.21-12.30L402.21-12.30Q402.21-9.10 403.26-7.01L403.26-7.01L403.26-7.01Q404.30-4.92 407.13-4.92L407.13-4.92L407.13-4.92Q409.96-4.92 411.74-6.27L411.74-6.27L411.74-6.27Q413.53-7.63 414.88-10.82L414.88-10.82L414.88-10.82Q417.34-16.48 419.31-27.00L419.31-27.00L419.31-27.00Q421.28-37.52 421.46-42.07L421.46-42.07L421.46-42.07Q421.64-46.62 421.64-50.00L421.64-50.00L421.64-50.00Q421.64-53.38 420.66-55.60L420.66-55.60L420.66-55.60Q419.68-57.81 416.91-57.81L416.91-57.81L416.91-57.81Q414.14-57.81 412.30-56.09L412.30-56.09L412.30-56.09Q410.45-54.37 408.98-51.05ZM503.69 2.46L503.69 2.46L503.69 2.46Q488.80 2.46 488.80-9.10L488.80-9.10L488.80-9.10Q488.93-12.30 489.91-17.71L489.91-17.71L492.12-29.03L492.12-29.03Q495.44-45.02 495.44-48.59L495.44-48.59L495.44-48.59Q495.44-55.72 491.26-55.72L491.26-55.72L491.26-55.72Q484.25-55.72 480.56-37.39L480.56-37.39L473.30 0L448.58 2.46L461.37-62.85L481.55-65.19L479.58-53.14L479.58-53.14Q485.36-65.19 503.07-65.19L503.07-65.19L503.07-65.19Q511.68-65.19 515.31-61.56L515.31-61.56L515.31-61.56Q518.94-57.93 518.94-49.81L518.94-49.81L518.94-49.81Q518.94-42.19 515.00-24.35L515.00-24.35L515.00-24.35Q513.16-16.36 513.16-13.35L513.16-13.35L513.16-13.35Q513.16-10.33 514.82-8.61L514.82-8.61L514.82-8.61Q516.48-6.89 518.94-6.64L518.94-6.64L518.94-6.64Q517.71-2.46 513.46 0L513.46 0L513.46 0Q509.22 2.46 503.69 2.46ZM565.55-43.17L565.55-43.17L565.55-43.17Q567.28-47.72 567.28-51.66L567.28-51.66L567.28-51.66Q567.28-58.92 561.37-58.92L561.37-58.92L561.37-58.92Q558.30-58.92 555.78-56.15L555.78-56.15L555.78-56.15Q553.25-53.38 553.25-49.94L553.25-49.94L553.25-49.94Q553.25-47.48 555.22-45.51L555.22-45.51L555.22-45.51Q558.05-42.80 565.31-38.38L565.31-38.38L565.31-38.38Q572.57-33.95 575.33-30.32L575.33-30.32L575.33-30.32Q578.10-26.69 578.10-21.71L578.10-21.71L578.10-21.71Q578.10-16.73 575.70-12.18L575.70-12.18L575.70-12.18Q573.30-7.63 569.00-4.43L569.00-4.43L569.00-4.43Q559.77 2.46 545.01 2.46L545.01 2.46L545.01 2.46Q537.02 2.46 530.87-1.72L530.87-1.72L530.87-1.72Q524.72-5.78 524.72-10.58L524.72-10.58L524.72-10.58Q524.72-15.38 528.22-18.20L528.22-18.20L528.22-18.20Q531.73-21.03 536.89-21.03L536.89-21.03L536.89-21.03Q542.06-21.03 545.26-19.07L545.26-19.07L545.26-19.07Q543.66-15.01 543.66-12.30L543.66-12.30L543.66-12.30Q543.66-4.18 550.55-4.18L550.55-4.18L550.55-4.18Q553.50-4.18 555.47-6.03L555.47-6.03L555.47-6.03Q557.44-7.87 557.44-11.07L557.44-11.07L557.44-11.07Q557.44-17.34 546.86-23.98L546.86-23.98L546.86-23.98Q538.25-29.64 536.28-31.86L536.28-31.86L536.28-31.86Q532.96-35.79 532.96-40.71L532.96-40.71L532.96-40.71Q532.96-45.63 535.30-50.31L535.30-50.31L535.30-50.31Q537.63-54.98 541.94-58.30L541.94-58.30L541.94-58.30Q550.92-65.19 566.54-65.19L566.54-65.19L566.54-65.19Q574.53-65.19 579.27-61.99L579.27-61.99L579.27-61.99Q584.00-58.79 584.00-53.38L584.00-53.38L584.00-53.38Q584.00-47.97 580.74-44.89L580.74-44.89L580.74-44.89Q577.49-41.82 571.58-41.82L571.58-41.82L571.58-41.82Q567.52-41.82 565.55-43.17Z" fill="#ffd5af"></path></g></g><style>text {
  font-size: 64px;
  font-family: Arial Black;
  dominant-baseline: central;
  text-anchor: middle;
}</style></svg>